<?xml version="1.0" encoding="utf-8"?>
<!-- Generator: Adobe Illustrator 25.4.1, SVG Export Plug-In . SVG Version: 6.00 Build 0)  -->
<svg version="1.1" id="Capa_1" xmlns="http://www.w3.org/2000/svg" xmlns:xlink="http://www.w3.org/1999/xlink" x="0px" y="0px"
	 viewBox="0 0 630.2 512" style="enable-background:new 0 0 630.2 512;" xml:space="preserve">
<style type="text/css">
	.st0{fill:#FFFFFF;}
</style>
<g>
	<g>
		<path class="st0" d="M630.2,60.6c-23.4,10.3-48.4,17.1-74.4,20.4c26.8-16,47.2-41.1,56.8-71.4c-25,14.9-52.5,25.4-81.9,31.3
			C506.9,15.6,473.1,0,436.3,0c-71.5,0-129.1,58.1-129.1,129.2c0,10.2,0.9,20.1,3,29.5C202.8,153.4,107.7,102,43.9,23.6
			C32.7,42.9,26.2,65,26.2,88.9c0,44.7,23,84.4,57.4,107.4c-20.8-0.4-41.1-6.4-58.4-15.9c0,0.4,0,0.9,0,1.4
			c0,62.8,44.8,114.9,103.5,126.9c-10.5,2.9-22,4.3-33.9,4.3c-8.3,0-16.6-0.5-24.5-2.2c16.7,51.2,64.2,88.8,120.7,90
			c-44,34.4-99.8,55.1-160.2,55.1c-10.6,0-20.8-0.5-30.9-1.8c57.2,36.9,125,58,198.2,58c237.7,0,367.7-196.9,367.7-367.6
			c0-5.7-0.2-11.2-0.5-16.7C591,109.5,612.6,86.8,630.2,60.6z"/>
	</g>
</g>
</svg>
