<?xml version="1.0" encoding="utf-8"?>
<!-- Generator: Adobe Illustrator 25.4.1, SVG Export Plug-In . SVG Version: 6.00 Build 0)  -->
<svg version="1.1" id="Capa_1" xmlns="http://www.w3.org/2000/svg" xmlns:xlink="http://www.w3.org/1999/xlink" x="0px" y="0px"
	 viewBox="0 0 742.4 512" style="enable-background:new 0 0 742.4 512;" xml:space="preserve">
<style type="text/css">
	.st0{fill:#FFFFFF;}
</style>
<g>
	<g>
		<path class="st0" d="M710.8,49.2c-20.1-35.8-42-42.4-86.5-44.9C579.9,1.3,468.1,0,371.3,0c-97,0-208.8,1.3-253.2,4.2
			c-44.4,2.6-66.3,9.1-86.6,45C10.7,85,0,146.6,0,255c0,0.1,0,0.1,0,0.1c0,0.1,0,0.1,0,0.1v0.1c0,108,10.7,170.1,31.4,205.5
			c20.3,35.8,42.2,42.3,86.6,45.3c44.4,2.6,156.3,4.1,253.3,4.1c96.8,0,208.6-1.5,253.1-4.1c44.5-3,66.3-9.5,86.5-45.3
			c20.9-35.4,31.5-97.5,31.5-205.5c0,0,0-0.1,0-0.2c0,0,0-0.1,0-0.1C742.4,146.6,731.8,85,710.8,49.2z M278.4,394.4V116l232,139.2
			L278.4,394.4z"/>
	</g>
</g>
</svg>
