<?xml version="1.0" encoding="utf-8"?>
<!-- Generator: Adobe Illustrator 25.4.1, SVG Export Plug-In . SVG Version: 6.00 Build 0)  -->
<svg version="1.1" id="katman_1" xmlns="http://www.w3.org/2000/svg" xmlns:xlink="http://www.w3.org/1999/xlink" x="0px" y="0px"
	 viewBox="0 0 300 300" style="enable-background:new 0 0 300 300;" xml:space="preserve">
<style type="text/css">
	.st0{fill:#000066;}
	.st1{fill:#FFFFFF;}
	.st2{fill:#CC0000;}
</style>
<path class="st0" d="M299.2,0.8H0.8c0,99.6,0,199,0,298.5h298.5C299.2,199.8,299.2,100.2,299.2,0.8z"/>
<g id="g584">
	<path class="st1" d="M1.8,250.7c0-21.9,0-43.8,0-65.6"/>
	<path class="st1" d="M1.8,115c0-21.9,0-43.8,0-65.6"/>
	<path class="st1" d="M300.3,193.7L210,150l-67.9,32.8l158.2,76.5C300.3,237.4,300.3,215.6,300.3,193.7z"/>
	<path class="st1" d="M300.3,193.7c0,21.9,0,43.8,0,65.6"/>
	<path class="st1" d="M142.1,117.2L0,48.3C0,70.2,0,92.1,0,114l74.3,36L142.1,117.2z"/>
	<path class="st1" d="M-0.2,183.9l-0.1,65.3l300.6-142.9c0-21.9,0-43.8,0-65.6L-0.2,183.9z"/>
	<path class="st1" d="M300.3,40.7c0,21.9,0,43.8,0,65.6"/>
	<path class="st1" d="M1.8,199.7c0-33.2,0-66.3,0-99.5"/>
	<path class="st1" d="M0,100.3c0,33.2,0,66.3,0,99.5h300.3v-99.5H0z"/>
	<rect x="101.3" y="0.8" class="st1" width="99.5" height="298.5"/>
	<path class="st1" d="M300.3,100.3c0,33.2,0,66.4,0,99.5"/>
	<rect x="121.2" y="0.8" class="st2" width="59.7" height="298.5"/>
	<path class="st2" d="M0,120.2c0,19.9,0,39.8,0,59.7h300.3v-59.7H0z"/>
	<path class="st2" d="M1.8,179.8c0-19.9,0-39.8,0-59.7"/>
	<path class="st2" d="M300.3,120.2c0,19.9,0,39.8,0,59.7"/>
	<path class="st2" d="M1.8,243c0-6.8,0-13.6,0-20.4"/>
	<path class="st2" d="M51.6,100.3L1.8,77.4c0,6.8,0,13.6,0,20.5l5.3,2.4H51.6z"/>
	<path class="st2" d="M1.8,97.9c0-6.8,0-13.6,0-20.5"/>
	<path class="st2" d="M51.6,199.7L1.8,222.6c0,6.8,0,13.6,0,20.4l94.2-43.2H51.6z"/>
	<path class="st2" d="M300.3,202.4l-5.2-2.6h-44.5l49.7,24.9C300.3,217.2,300.3,209.8,300.3,202.4z"/>
	<path class="st2" d="M300.3,202.4c0,7.4,0,14.8,0,22.2"/>
	<path class="st2" d="M300.3,53.1c0,7.4,0,14.8,0,22.2"/>
	<path class="st2" d="M206.1,100.3h44.5l49.7-24.9c0-7.4,0-14.8,0-22.2L206.1,100.3z"/>
</g>
</svg>
