<?xml version="1.0" encoding="utf-8"?>
<!-- Generator: Adobe Illustrator 25.4.1, SVG Export Plug-In . SVG Version: 6.00 Build 0)  -->
<svg version="1.1" id="katman_1" xmlns="http://www.w3.org/2000/svg" xmlns:xlink="http://www.w3.org/1999/xlink" x="0px" y="0px"
	 viewBox="0 0 1000 1000" style="enable-background:new 0 0 1000 1000;" xml:space="preserve">
<style type="text/css">
	.st0{fill:#17487C;}
	.st1{fill:#FFFFFF;}
	.st2{fill:#0e246f;}
</style>
<circle class="st0" cx="487.7" cy="513.5" r="461.8"/>
<circle class="st1" cx="502.9" cy="498.3" r="461.8"/>
<g>
	<path class="st2" d="M613.3,687L311.8,385.5c-23.2-23.2-23.2-60.9,0-84.2l0,0c23.2-23.2,60.9-23.2,84.2,0l301.5,301.5
		c23.2,23.2,23.2,60.9,0,84.2l0,0C674.3,710.2,636.6,710.2,613.3,687z"/>
	<path class="st2" d="M697.5,385.5L396,687c-23.2,23.2-60.9,23.2-84.2,0l0,0c-23.2-23.2-23.2-60.9,0-84.2l301.5-301.5
		c23.2-23.2,60.9-23.2,84.2,0l0,0C720.7,324.6,720.7,362.2,697.5,385.5z"/>
</g>
</svg>
