<?xml version="1.0" encoding="utf-8"?>
<!-- Generator: Adobe Illustrator 25.4.1, SVG Export Plug-In . SVG Version: 6.00 Build 0)  -->
<svg version="1.1" id="katman_1" xmlns="http://www.w3.org/2000/svg" xmlns:xlink="http://www.w3.org/1999/xlink" x="0px" y="0px"
	 viewBox="0 0 300 300" style="enable-background:new 0 0 300 300;" xml:space="preserve">
<style type="text/css">
	.st0{fill:none;stroke:#134386;stroke-width:27;stroke-miterlimit:10;}
	.st1{fill:#134386;}
</style>
<g>
	<circle class="st0" cx="150" cy="150" r="134"/>
	<g>
		<path class="st1" d="M197.9,197.9L197.9,197.9c-4.4,4.4-11.5,4.4-15.9,0l-79.8-79.8c-4.4-4.4-4.4-11.5,0-15.9l0,0
			c4.4-4.4,11.5-4.4,15.9,0l79.8,79.8C202.3,186.4,202.3,193.4,197.9,197.9z"/>
		<path class="st1" d="M197.9,102.1L197.9,102.1c4.4,4.4,4.4,11.5,0,15.9l-79.8,79.8c-4.4,4.4-11.5,4.4-15.9,0l0,0
			c-4.4-4.4-4.4-11.5,0-15.9l79.8-79.8C186.4,97.7,193.4,97.7,197.9,102.1z"/>
	</g>
</g>
</svg>
