<?xml version="1.0" encoding="utf-8"?>
<!-- Generator: Adobe Illustrator 25.4.1, SVG Export Plug-In . SVG Version: 6.00 Build 0)  -->
<svg version="1.1" id="katman_1" xmlns="http://www.w3.org/2000/svg" xmlns:xlink="http://www.w3.org/1999/xlink" x="0px" y="0px"
	 viewBox="0 0 300 65" style="enable-background:new 0 0 300 65;" xml:space="preserve">
<style type="text/css">
	.st1{fill-rule:evenodd;clip-rule:evenodd;fill:#fff;}
</style>
<g>
	<defs>
		<rect id="SVGID_1_" x="2.4" y="2.2" width="295.3" height="60.6"/>
	</defs>
	<clipPath id="SVGID_00000034811366267255954040000009382355933051048869_">
		<use xlink:href="#SVGID_1_"  style="overflow:visible;"/>
	</clipPath>
	<g style="clip-path:url(#SVGID_00000034811366267255954040000009382355933051048869_);">
		<path class="st1" d="M62.9,2.2v6.2L9.4,61.5H2.4L62.9,2.2z M77.9,44.8H80c1.2,5.4,3.1,9.3,5.7,11.8c2.4,2.4,5.7,3.7,9.1,3.7
			c3.3,0,5.7-0.8,7.1-2.5c1.3-1.5,2.1-3.4,2.1-5.3c0-1-0.2-1.9-0.5-2.8c-0.4-0.9-0.9-1.7-1.7-2.4c-1.8-1.4-3.7-2.6-5.8-3.6l-4.7-2.3
			c-4.7-2.3-8-4.6-9.9-6.8c-2-2.3-3-5.3-2.9-8.3c0-3.6,1.4-7.1,3.8-9.9c2.6-3.1,6.5-4.6,11.7-4.6c2.6,0,5.2,0.4,7.7,1.2
			c1.4,0.5,2.8,0.9,4.3,1.2c0.3,0,0.6,0,0.9-0.1c0.3-0.1,0.6-0.3,0.8-0.5c0.3-0.6,0.6-1.2,0.8-1.8h2.2v15.7h-2
			c-0.9-3.5-2.7-6.7-5.1-9.3c-1.1-1.3-2.5-2.3-4-2.9c-1.5-0.7-3.2-1-4.9-1c-2.1-0.1-4.2,0.6-5.9,2c-0.7,0.6-1.2,1.3-1.6,2.2
			c-0.4,0.8-0.6,1.7-0.5,2.6c-0.1,0.9,0.1,1.9,0.4,2.8c0.3,0.9,0.9,1.7,1.6,2.3c2.8,2,5.7,3.7,8.8,5.1l5.5,2.6
			c2.1,1,4.1,2.3,5.8,3.9c1.3,1.3,2.4,2.8,3,4.6c0.7,1.7,1,3.5,1,5.4c-0.1,3.9-1.6,7.5-4.4,10.3c-2.9,3.2-7.5,4.8-13.9,4.8
			c-3,0-6.1-0.5-8.9-1.5l-1.4-0.6c-0.3-0.1-0.6-0.2-1-0.2c-0.3-0.1-0.5-0.1-0.8-0.1c-0.3,0-0.6,0-0.9,0.1c-0.3,0.1-0.5,0.3-0.7,0.5
			c-0.3,0.6-0.6,1.2-0.7,1.8h-2.1V44.8z M132.8,56.4c0.7-0.6,1.4-1.2,2-2V44c-1.8,0.4-3.6,1.2-5.1,2.2c-1.1,0.7-2.1,1.6-2.7,2.8
			s-1,2.4-1,3.7c-0.1,1.3,0.3,2.6,1.1,3.6c0.3,0.4,0.7,0.7,1.1,0.9c0.4,0.2,0.9,0.3,1.4,0.3C130.7,57.5,131.8,57.1,132.8,56.4z
			 M120.2,47.2c4.7-2.5,9.6-4.4,14.8-5.8v-5.2c0.1-1.7-0.3-3.4-1.4-4.7c-0.9-1-2.5-1.5-4.8-1.6c-1.1,0-2.2,0.2-3.2,0.7
			c-0.4,0.2-0.7,0.4-0.9,0.7c-0.2,0.3-0.3,0.7-0.4,1.1c0,0.2,0,0.5,0.1,0.7c0.1,0.2,0.3,0.4,0.4,0.6l0.4,0.5
			c0.3,0.4,0.6,0.8,0.8,1.3c0.2,0.5,0.3,1,0.3,1.5c0,0.6-0.1,1.2-0.3,1.7c-0.2,0.5-0.6,1-1,1.4c-0.9,0.7-2,1.1-3.2,1.1
			c-1.3,0-2.6-0.4-3.6-1.2c-0.5-0.4-0.9-1-1.1-1.6c-0.3-0.6-0.4-1.3-0.3-1.9c0-1.3,0.4-2.7,1.1-3.8c0.7-1.2,1.7-2.1,2.9-2.7
			c2.9-1.7,6.2-2.6,9.6-2.5c3.6-0.1,7.1,0.7,10.3,2.4c2.7,1.6,4.1,4.5,4.1,8.8v17.5c0,0.5,0.1,0.9,0.4,1.3c0.1,0.2,0.2,0.3,0.4,0.4
			c0.2,0.1,0.3,0.1,0.5,0.2c0.3,0,0.5,0,0.8-0.1c0.4-0.2,0.7-0.5,1.1-0.9l1.1,1.5c-1.3,1.5-2.9,2.7-4.7,3.5
			c-1.1,0.4-2.3,0.6-3.5,0.6c-0.9,0.1-1.8-0.1-2.6-0.4c-0.8-0.3-1.6-0.8-2.1-1.5c-0.7-0.9-1.1-2-1.2-3.1c-1.9,1.9-4.2,3.4-6.8,4.2
			c-1.5,0.5-3,0.8-4.5,0.8c-2,0-3.9-0.6-5.5-1.8c-0.9-0.7-1.6-1.6-2.1-2.6c-0.5-1-0.7-2.1-0.6-3.3c0-1.6,0.4-3.2,1.3-4.5
			C117.5,49,118.7,47.9,120.2,47.2z M152.3,58.8c-0.8,0.6-1.9,1-2.9,1.1v1.7h17.4v-1.7c-1-0.1-1.9-0.5-2.6-1.1c-0.6-0.9-0.9-2-0.7-3
			V36.5c0.7-1,1.5-1.9,2.4-2.7c1-0.9,2.2-1.4,3.5-1.4c0.7-0.1,1.5,0.1,2.1,0.5c0.6,0.4,1.1,1,1.3,1.7c0.4,1.2,0.5,2.4,0.5,3.7v17.5
			c0.1,1.1-0.1,2.1-0.7,3c-0.8,0.6-1.7,0.9-2.6,1.1v1.7H187v-1.7c-1-0.1-2-0.4-2.8-0.9c-0.7-0.9-1-2-0.8-3.1V38.4
			c0-4-0.9-6.8-2.6-8.4c-2-1.7-4.6-2.6-7.2-2.4c-2.1,0-4.2,0.6-6,1.7c-1.8,1.1-3.3,2.6-4.4,4.3v-5.2h-13.7v1.8
			c1.1,0,2.2,0.4,3.1,1.1c0.6,0.9,0.9,2,0.8,3v21.2c0.1,0.6,0,1.2-0.1,1.8C152.9,57.9,152.7,58.4,152.3,58.8z M192.4,32.5
			c1.5-1.6,3.3-2.9,5.3-3.8c2-0.9,4.2-1.3,6.4-1.2c2.2-0.1,4.4,0.4,6.5,1.3c2,0.9,3.9,2.2,5.3,3.9c3.1,3.4,4.7,7.9,4.6,12.5
			c0.1,4.6-1.5,9-4.5,12.4c-1.5,1.7-3.3,3.1-5.3,4c-2.1,0.9-4.3,1.3-6.5,1.3c-2.2,0.1-4.4-0.4-6.4-1.2c-2-0.9-3.8-2.2-5.3-3.8
			c-3.1-3.4-4.8-7.9-4.7-12.6C187.6,40.5,189.2,36,192.4,32.5z M199.2,55.7c0.8,3.1,2.5,4.7,4.9,4.7c1.1,0,2.1-0.3,3-1
			c0.8-0.7,1.4-1.6,1.6-2.6c0.9-3.8,1.2-7.8,1.1-11.7c0.2-3.9-0.2-7.8-1.2-11.6c-0.2-1-0.8-2-1.6-2.6c-0.8-0.7-1.9-1-2.9-1
			c-2.5,0-4.1,1.6-4.9,4.7c-0.7,3.5-0.9,7-0.8,10.6C198.3,48.7,198.5,52.2,199.2,55.7z M236.4,30.2v-1.8h-18.1v1.8
			c0.7,0,1.4,0.2,2.1,0.6c0.6,0.7,1.2,1.5,1.6,2.4c0.6,1.2,1.2,2.5,1.8,3.8l0,0.1c0.6,1.3,1.2,2.7,1.8,4.2l8.7,21.4h1.8l11.7-28.6
			c0.4-1.1,1-2.1,1.8-3c0.7-0.6,1.5-0.9,2.4-1v-1.8h-11v1.8c1,0,2,0.1,3,0.5c0.7,0.3,1,0.9,1,1.9c0,0.5-0.1,1-0.3,1.4
			c-0.1,0.6-0.3,1.2-0.6,1.8l-4.9,12.3h-0.6l-5.5-13.8l0-0.1c-0.1-0.2-0.2-0.6-0.4-1c-0.1-0.3-0.2-0.7-0.3-1.1c0-0.3,0-0.6,0.2-0.9
			c0.2-0.3,0.4-0.5,0.7-0.6C234.5,30.3,235.4,30.2,236.4,30.2z M255.6,32.2c1.4-1.5,3-2.6,4.9-3.4c1.9-0.8,3.9-1.2,5.9-1.2
			c2.4,0,4.7,0.6,6.7,1.9c2.1,1.2,3.8,3.1,4.9,5.2c1,2,1.6,4.2,1.8,6.5c0.1,0.9,0.2,1.9,0.3,2.9h-18.5c0.1,2.6,0.6,5.1,1.4,7.5
			c1.4,3.9,4,5.9,7.5,5.9c1.7,0,3.4-0.6,4.8-1.6c1.3-0.9,2.4-2,3.5-3.2l1.7,1c-1.8,3.2-4.5,5.9-7.7,7.6c-2.1,0.9-4.3,1.4-6.6,1.3
			c-3.8-0.1-7.4-1.6-10-4.2c-3.1-2.8-4.7-7.3-4.7-13.4C251.1,39.5,252.6,35.3,255.6,32.2z M271,41.3c0.1-3-0.2-6-1-8.9
			c-0.2-0.8-0.7-1.4-1.4-1.9c-0.7-0.5-1.5-0.7-2.3-0.6c-0.9,0-1.8,0.2-2.5,0.8c-0.7,0.5-1.2,1.3-1.5,2.2c-0.8,2.8-1.2,5.6-1.2,8.5
			H271z M283,58.7c-0.8,0.6-1.7,1-2.6,1.2v1.7h17.3v-1.7c-1-0.2-2-0.6-2.8-1.2c-0.6-0.9-0.9-2-0.8-3.1V12.9h-13.8v1.8
			c1,0.2,2,0.6,2.8,1.2c0.6,0.9,0.9,1.9,0.7,3v36.7C284,56.7,283.7,57.8,283,58.7z M62.9,61.5V12.9L14.2,61.5H62.9z"/>
	</g>
</g>
</svg>
