<?xml version="1.0" encoding="utf-8"?>
<!-- Generator: Adobe Illustrator 25.4.1, SVG Export Plug-In . SVG Version: 6.00 Build 0)  -->
<svg version="1.1" id="katman_1" xmlns="http://www.w3.org/2000/svg" xmlns:xlink="http://www.w3.org/1999/xlink" x="0px" y="0px"
	 viewBox="0 0 1202 1202" style="enable-background:new 0 0 1202 1202;" xml:space="preserve">
<style type="text/css">
	.st0{fill:#0e246f;}
</style>
<g>
	<path class="st0" d="M601.6,201c143.4,0,286.7,0,430.1,0c40.3,0,70.2,29.7,69.4,68.5c-0.8,34.2-28.4,62.8-62.7,64.7
		c-2.8,0.2-5.6,0.1-8.3,0.1c-286,0-572,0-858.1,0c-35.1,0-61.9-20.1-69.1-51.5c-9.5-41.4,20.9-80.9,63.4-81.6
		c28.8-0.5,57.6-0.1,86.4-0.1C369,201,485.3,201,601.6,201z"/>
	<path class="st0" d="M599.9,667.8c-143.4,0-286.7,0.1-430.1,0c-39.6,0-69.4-29.7-68.8-68.1c0.6-34.2,28.1-63,62.2-65.1
		c3.1-0.2,6.2-0.1,9.4-0.1c285.7,0,571.3,0,857,0c36.3,0,62.8,20.2,69.8,53.1c8.5,39.6-20.8,77.9-61.2,80.1
		c-7.3,0.4-14.6,0.2-21.9,0.2C877.6,667.8,738.7,667.8,599.9,667.8z"/>
	<path class="st0" d="M601.4,867.8c143.7,0,287.4-0.1,431.1,0c39.5,0,69.3,29.9,68.5,68.3c-0.7,34.2-28.3,62.9-62.5,64.9
		c-2.1,0.1-4.2,0.1-6.2,0.1c-287.4,0-574.8,0-862.2,0c-34.3,0-60.7-21.1-67.6-53.3c-8.5-40,21.6-78.6,62.6-79.8
		c20.1-0.6,40.3-0.2,60.4-0.2C350.8,867.8,476.1,867.8,601.4,867.8z"/>
</g>
</svg>
