<?xml version="1.0" encoding="utf-8"?>
<!-- Generator: Adobe Illustrator 25.4.1, SVG Export Plug-In . SVG Version: 6.00 Build 0)  -->
<svg version="1.1" id="katman_1" xmlns="http://www.w3.org/2000/svg" xmlns:xlink="http://www.w3.org/1999/xlink" x="0px" y="0px"
	 viewBox="0 0 800 800" style="enable-background:new 0 0 800 800;" xml:space="preserve">
<style type="text/css">
	.st0{fill:#E30A17;}
	.st1{fill:#FFFFFF;}
</style>
<path class="st0" d="M0,0h800v800H0V0z"/>
<path class="st1" d="M487.9,400l180.9-58.8L557,495.1V304.9l111.8,153.9L487.9,400z M500.2,506.9c-59.1,93.3-182.6,121.1-276,62.1
	c-93.3-59.1-121.1-182.6-62.1-276s182.6-121.1,276-62.1c25,15.8,46.2,37,62.1,62.1c-59.1-65.7-160.2-71.1-226-12.1
	s-71.1,160.2-12.1,226s160.2,71.1,226,12.1C492.4,515.2,496.4,511.2,500.2,506.9z"/>
</svg>
